<?xml version="1.0" standalone="no"?>
<!DOCTYPE svg PUBLIC "-//W3C//DTD SVG 20010904//EN"
 "http://www.w3.org/TR/2001/REC-SVG-20010904/DTD/svg10.dtd">
<svg version="1.0" xmlns="http://www.w3.org/2000/svg"
 width="400.000000pt" height="400.000000pt" viewBox="0 0 400.000000 400.000000"
 preserveAspectRatio="xMidYMid meet">

<g transform="translate(0.000000,400.000000) scale(0.100000,-0.100000)"
fill="#000000" stroke="none">
<path d="M3006 2993 l-169 -106 -174 23 c-161 21 -196 23 -471 17 -647 -14
-791 -36 -935 -145 -95 -72 -173 -222 -184 -355 -3 -37 -10 -70 -15 -73 -4 -3
-34 19 -66 48 -76 72 -224 196 -290 243 -99 70 -193 55 -272 -46 -96 -121 -73
-247 68 -381 70 -66 238 -188 444 -322 l118 -77 0 -47 c0 -75 39 -468 56 -566
18 -104 53 -201 96 -269 26 -40 29 -50 17 -58 -8 -5 -21 -9 -29 -9 -29 0 -205
-61 -222 -77 -24 -22 -23 -66 3 -89 19 -17 37 -19 178 -19 223 1 1521 15 1551
17 14 1 145 -4 292 -11 255 -13 268 -13 305 5 33 17 38 24 38 53 0 24 -7 39
-25 52 -21 16 -131 52 -222 73 -16 4 -28 10 -28 15 0 5 15 32 34 60 19 27 36
55 38 61 2 6 37 17 78 25 124 21 204 65 234 130 49 102 -11 353 -179 755 l-52
125 -7 170 c-7 204 -18 280 -52 385 l-27 80 37 196 c37 193 39 224 14 224 -7
0 -89 -48 -182 -107z m102 -160 l-32 -170 21 -49 c12 -27 30 -87 40 -134 16
-77 18 -141 18 -670 0 -648 1 -636 -67 -780 -39 -81 -132 -176 -208 -213 -107
-52 -159 -58 -655 -68 -253 -6 -500 -7 -550 -4 -202 14 -355 107 -436 267 -42
83 -67 184 -84 342 -8 78 -22 203 -31 279 -25 220 -12 768 21 877 25 83 73
165 121 209 120 111 271 137 859 148 342 6 512 -3 641 -32 l66 -16 67 40 c36
23 104 65 151 95 47 30 86 53 88 52 1 -2 -12 -80 -30 -173z m-2427 -221 c76
-54 285 -231 342 -290 l38 -39 -10 -139 c-6 -76 -11 -167 -11 -201 0 -35 -2
-63 -5 -63 -11 0 -249 159 -355 238 -220 163 -276 235 -268 343 8 104 88 199
167 199 26 -1 54 -13 102 -48z m2626 -892 c76 -197 123 -378 123 -468 0 -67
-28 -108 -96 -139 -30 -14 -72 -27 -93 -30 l-37 -5 8 88 c7 80 12 162 34 557
4 65 10 114 14 110 4 -4 25 -55 47 -113z m-1978 -918 c20 -16 45 -33 55 -39
20 -11 -27 -17 -234 -28 -95 -5 -146 2 -129 20 9 8 230 74 253 74 10 1 35 -12
55 -27z m1847 -8 c68 -20 124 -40 124 -45 0 -16 -62 -19 -205 -9 -83 5 -159
10 -169 10 -14 0 -6 9 26 29 25 16 49 34 52 40 11 18 41 13 172 -25z"/>
<path d="M1496 2504 c-9 -8 -16 -22 -16 -29 0 -7 7 -21 16 -29 30 -30 74 -13
74 29 0 42 -44 59 -74 29z"/>
<path d="M2612 2508 c-7 -7 -12 -21 -12 -33 0 -47 62 -63 81 -21 22 47 -33 90
-69 54z"/>
<path d="M1935 2340 c-8 -13 31 -135 56 -177 52 -84 135 -110 184 -57 31 34
65 124 72 192 l6 52 -156 0 c-96 0 -158 -4 -162 -10z m295 -20 c0 -25 -24
-117 -41 -154 -35 -80 -72 -93 -132 -45 -29 22 -81 123 -92 177 l-7 32 136 0
c79 0 136 -4 136 -10z"/>
<path d="M1834 1880 c1 -62 2 -65 26 -65 24 0 25 3 26 65 l1 65 -6 -55 c-4
-41 -10 -56 -23 -58 -14 -3 -18 7 -21 55 l-4 58 1 -65z"/>
<path d="M1910 1930 c0 -5 5 -10 10 -10 6 0 10 -25 10 -55 0 -30 5 -55 10 -55
6 0 10 25 10 55 0 30 5 55 10 55 6 0 10 5 10 10 0 6 -13 10 -30 10 -16 0 -30
-4 -30 -10z"/>
<path d="M1996 1930 c-24 -70 -31 -125 -16 -115 6 3 10 15 10 26 0 28 17 23
29 -8 9 -23 10 -18 5 27 -7 63 -19 95 -28 70z"/>
<path d="M2046 1917 c-9 -35 -7 -97 4 -97 6 0 10 15 11 33 l1 32 10 -37 c11
-43 22 -48 33 -15 l7 22 8 -25 c6 -19 8 -9 9 38 1 34 -3 62 -8 62 -11 0 -21
-25 -21 -51 0 -32 -17 -21 -24 16 -8 42 -22 52 -30 22z"/>
<path d="M2162 1904 c-19 -75 -20 -84 -12 -89 5 -3 10 5 12 17 4 28 22 27 26
-2 2 -11 7 -18 11 -15 9 5 -8 105 -20 119 -4 5 -12 -9 -17 -30z"/>
<path d="M2222 1875 c1 -51 2 -61 7 -35 l7 35 18 -33 c23 -44 31 -35 10 13
-11 27 -12 41 -5 48 6 6 11 16 11 21 0 6 -5 5 -12 -2 -17 -17 -26 -15 -31 6
-3 9 -5 -14 -5 -53z"/>
<path d="M2307 1880 c-8 -33 -11 -62 -7 -65 5 -3 10 5 12 17 4 28 22 27 26 -2
2 -11 8 -20 13 -20 6 0 8 12 5 28 -3 15 -8 44 -12 65 -3 20 -10 37 -14 37 -4
0 -14 -27 -23 -60z"/>
<path d="M2429 1900 l-4 -45 -19 38 c-11 20 -23 37 -28 37 -4 0 -7 -26 -7 -57
2 -54 2 -55 8 -18 l7 40 24 -45 25 -45 3 32 c2 18 2 50 0 70 l-4 38 -5 -45z"/>
<path d="M1635 1768 c-2 -13 -6 -43 -7 -68 -3 -47 -21 -62 -26 -22 -4 24 -22
31 -22 8 0 -7 -7 -19 -15 -26 -13 -11 -15 -8 -15 13 0 14 8 30 17 36 25 14 9
25 -16 12 -26 -14 -37 -56 -21 -76 9 -11 17 -12 30 -5 11 6 21 6 24 1 3 -5 22
-9 41 -8 26 1 35 5 35 18 0 27 11 49 21 43 5 -3 9 -15 9 -28 0 -25 17 -46 38
-46 10 0 10 3 -2 16 -9 8 -16 29 -16 46 0 21 -6 31 -19 35 -14 3 -18 13 -17
36 1 39 -30 52 -39 15z m22 -25 c-3 -10 -5 -4 -5 12 0 17 2 24 5 18 2 -7 2
-21 0 -30z"/>
<path d="M2315 1751 c-5 -31 -10 -38 -25 -34 -23 6 -44 -29 -35 -59 5 -15 3
-19 -6 -16 -8 3 -15 17 -17 32 -4 32 -26 44 -47 26 -12 -10 -15 -9 -15 6 0 13
-3 15 -11 7 -6 -6 -9 -28 -7 -49 l3 -39 19 35 19 35 14 -33 c14 -34 44 -54 51
-34 2 7 12 12 22 12 10 0 22 5 26 11 4 8 9 7 15 -2 10 -17 79 -21 97 -7 14 12
16 64 3 72 -5 4 -21 2 -35 -4 -19 -7 -26 -17 -26 -35 0 -15 -4 -24 -10 -20 -5
3 -10 35 -10 71 0 71 -15 86 -25 25z m-11 -60 c7 -10 -18 -34 -27 -25 -7 8 3
34 13 34 5 0 11 -4 14 -9z m106 -15 c0 -14 -4 -27 -9 -31 -12 -7 -25 31 -16
45 11 18 25 10 25 -14z"/>
<path d="M1436 1758 c-14 -23 -19 -50 -17 -99 1 -22 6 -26 34 -26 17 0 38 4
45 10 17 14 15 54 -4 65 -13 7 -14 13 -5 31 7 12 9 26 6 31 -11 18 -44 11 -59
-12z m35 -31 c-16 -16 -26 0 -10 19 9 11 15 12 17 4 2 -6 -1 -17 -7 -23z m14
-48 c0 -14 -7 -25 -17 -27 -13 -3 -16 3 -14 25 5 36 4 35 19 31 6 -3 12 -15
12 -29z"/>
<path d="M2090 1729 c0 -59 13 -93 24 -64 11 31 6 92 -9 105 -13 11 -15 5 -15
-41z"/>
<path d="M2720 1760 c0 -5 7 -10 16 -10 8 0 12 5 9 10 -3 6 -10 10 -16 10 -5
0 -9 -4 -9 -10z"/>
<path d="M1846 1723 c-4 -9 2 -25 14 -38 21 -22 26 -45 10 -45 -5 0 -14 8 -20
18 -8 12 -13 13 -16 5 -9 -22 -24 -14 -24 12 0 16 -6 25 -15 25 -8 0 -15 -9
-15 -19 0 -22 -19 -39 -21 -19 -2 24 3 43 14 50 6 4 9 9 6 12 -11 11 -49 -26
-49 -48 0 -30 21 -48 40 -36 9 5 19 5 27 -1 7 -6 17 -8 22 -5 5 4 12 2 16 -4
8 -13 45 -13 65 0 12 8 11 14 -8 40 -15 19 -21 38 -17 50 8 25 -20 28 -29 3z"/>
<path d="M2583 1729 c-24 -9 -39 -49 -29 -75 4 -10 1 -14 -6 -12 -7 3 -14 17
-16 32 -4 32 -26 44 -47 26 -12 -10 -15 -9 -15 6 0 13 -3 15 -11 7 -13 -13 -8
-79 6 -76 6 1 12 11 15 23 6 26 24 28 29 3 6 -34 22 -44 60 -37 20 4 40 10 45
15 5 4 16 1 24 -8 10 -9 24 -13 41 -9 14 4 49 8 76 10 28 2 52 5 55 5 2 1 -1
6 -8 13 -17 17 -15 47 3 54 23 9 18 23 -5 17 -24 -6 -44 -39 -36 -59 3 -8 -1
-14 -9 -14 -10 0 -15 11 -15 36 0 43 -22 42 -30 0 l-5 -28 -20 21 c-16 19 -17
25 -6 42 11 18 10 20 -6 17 -26 -5 -28 -41 -3 -63 11 -10 20 -22 20 -27 0 -15
-29 -8 -39 9 -8 15 -12 16 -35 3 -33 -17 -49 -3 -18 17 21 15 30 47 15 56 -5
3 -18 1 -30 -4z m17 -24 c-7 -9 -15 -13 -17 -11 -7 7 7 26 19 26 6 0 6 -6 -2
-15z"/>
<path d="M1918 1696 c-15 -33 -4 -58 24 -55 13 2 28 0 35 -4 13 -8 43 1 43 14
0 4 -7 6 -15 3 -11 -5 -15 1 -15 20 0 34 -13 33 -30 -1 -14 -28 -14 -28 -18
-5 -2 13 2 30 8 38 10 11 9 14 -4 14 -9 0 -21 -11 -28 -24z"/>
<path d="M2816 1678 c-7 -31 18 -57 41 -42 9 6 19 17 22 25 3 11 1 12 -11 2
-17 -15 -28 -7 -28 19 0 25 -16 23 -24 -4z"/>
<path d="M1821 1528 c-1 -62 1 -68 19 -68 11 0 20 5 20 10 0 6 -6 10 -13 10
-9 0 -12 11 -9 33 2 17 -1 43 -7 57 -8 21 -10 13 -10 -42z"/>
<path d="M1877 1583 c-2 -5 -3 -21 -1 -38 1 -16 3 -42 3 -57 1 -21 6 -28 21
-28 11 0 20 5 20 10 0 6 -7 10 -15 10 -18 0 -21 45 -4 56 8 4 7 9 -2 15 -11 7
-10 11 6 23 20 15 20 15 -2 16 -12 0 -24 -3 -26 -7z"/>
<path d="M1944 1575 c-7 -17 -2 -29 22 -62 15 -22 15 -23 -7 -31 -13 -5 -18
-11 -12 -15 16 -10 43 3 43 20 0 9 -9 31 -21 49 -17 29 -18 34 -5 34 9 0 16 5
16 10 0 16 -30 12 -36 -5z"/>
<path d="M2005 1580 c-3 -5 -1 -10 4 -10 6 0 11 -21 11 -49 0 -28 5 -53 10
-56 6 -4 10 15 10 49 0 31 5 56 10 56 6 0 10 5 10 10 0 6 -11 10 -24 10 -14 0
-28 -4 -31 -10z"/>
<path d="M2086 1580 c-8 -24 -26 -94 -26 -102 0 -5 5 -8 10 -8 6 0 10 9 10 20
0 29 17 25 29 -7 8 -23 9 -18 4 27 -7 64 -18 94 -27 70z"/>
<path d="M2132 1528 c0 -35 3 -48 5 -30 5 39 20 42 29 5 11 -51 12 -48 11 17
-2 59 -4 65 -24 68 -22 3 -23 0 -21 -60z m38 32 c0 -5 -7 -10 -15 -10 -8 0
-15 5 -15 10 0 6 7 10 15 10 8 0 15 -4 15 -10z"/>
<path d="M2197 1583 c-10 -19 -8 -113 2 -113 7 0 11 24 11 60 0 56 -3 70 -13
53z"/>
<path d="M2228 1584 c-10 -19 -9 -114 1 -114 6 0 11 12 11 28 l1 27 15 -28
c20 -37 27 -30 12 11 -10 26 -10 37 0 52 7 11 8 20 3 20 -6 0 -13 -5 -17 -12
-5 -8 -9 -6 -14 7 -4 10 -9 14 -12 9z"/>
<path d="M2322 1569 c-6 -15 -13 -44 -17 -65 -5 -34 -4 -36 6 -16 15 27 29 29
29 3 0 -11 5 -23 10 -26 11 -7 5 52 -10 105 l-7 25 -11 -26z"/>
<path d="M2420 1553 l0 -38 -21 33 c-12 17 -23 32 -25 32 -2 0 -3 -26 -3 -57
2 -55 2 -56 8 -18 l7 40 19 -37 c10 -21 22 -38 27 -38 4 0 8 27 8 60 0 33 -4
60 -10 60 -5 0 -10 -17 -10 -37z"/>
<path d="M1718 1398 c-2 -48 -7 -63 -18 -63 -8 0 -15 8 -15 17 0 26 -20 26
-23 1 -2 -13 -8 -23 -13 -23 -13 0 -11 34 3 48 9 9 8 12 -5 12 -20 0 -42 -42
-34 -64 5 -12 19 -15 54 -14 26 1 53 -1 59 -5 8 -4 14 6 18 28 7 38 26 48 26
14 0 -29 18 -59 36 -59 13 0 13 2 0 22 -9 12 -16 33 -16 46 0 12 -8 26 -17 30
-12 4 -18 18 -18 37 0 20 -6 31 -17 33 -14 3 -17 -7 -20 -60z m32 28 c0 -8 -4
-18 -10 -21 -5 -3 -10 3 -10 14 0 12 5 21 10 21 6 0 10 -6 10 -14z"/>
<path d="M2630 1402 c0 -40 -5 -64 -15 -72 -12 -10 -15 -7 -21 14 -7 31 -24
35 -24 6 0 -11 -4 -20 -10 -20 -15 0 -12 48 3 53 6 2 9 7 6 10 -3 4 -15 -1
-28 -9 -15 -11 -21 -24 -19 -42 3 -25 6 -27 56 -27 28 0 52 -3 52 -7 0 -5 5
-8 10 -8 6 0 10 9 10 19 0 28 11 52 21 45 5 -3 9 -15 9 -28 0 -25 17 -46 38
-46 10 0 10 4 -2 22 -9 12 -16 33 -16 46 0 12 -8 26 -17 30 -12 4 -18 18 -18
37 0 20 -5 31 -17 33 -16 3 -18 -5 -18 -56z m30 31 c0 -5 -5 -15 -10 -23 -8
-12 -10 -11 -10 8 0 12 5 22 10 22 6 0 10 -3 10 -7z"/>
<path d="M1524 1414 c-21 -51 -15 -107 12 -109 39 -3 64 13 64 39 0 14 -7 29
-16 34 -12 7 -14 14 -6 28 13 25 5 44 -19 44 -13 0 -25 -12 -35 -36z m43 -9
c-4 -8 -11 -15 -17 -15 -7 0 -7 6 0 21 13 23 26 19 17 -6z m12 -44 c8 -14 7
-22 -4 -31 -17 -14 -28 -8 -31 17 -6 35 19 45 35 14z"/>
<path d="M2157 1443 c-8 -8 -9 -127 -1 -135 9 -10 68 11 82 29 21 29 15 70
-14 92 -27 21 -55 27 -67 14z m63 -32 c14 -28 12 -57 -6 -75 -26 -27 -34 -18
-34 39 0 42 4 55 15 55 8 0 19 -9 25 -19z"/>
<path d="M1927 1403 c-13 -12 -7 -40 13 -58 11 -10 17 -22 14 -27 -3 -5 -14
-2 -24 7 -12 11 -20 13 -25 5 -9 -15 -25 -2 -25 21 0 10 -4 19 -10 19 -5 0
-10 -9 -10 -20 0 -11 -4 -20 -10 -20 -15 0 -12 48 3 53 6 2 9 7 6 10 -3 4 -15
-1 -28 -9 -32 -23 -26 -69 9 -70 14 -1 27 -2 30 -3 3 -2 14 -4 25 -6 89 -16
102 -7 64 46 -17 24 -18 33 -9 44 10 12 10 15 -2 15 -8 0 -18 -3 -21 -7z"/>
<path d="M2001 1381 c-40 -40 -20 -70 43 -68 22 1 41 8 44 15 2 7 -2 10 -12 6
-12 -4 -16 0 -16 15 0 27 -16 27 -23 1 -3 -11 -10 -20 -16 -20 -15 0 -14 33 1
48 6 6 9 14 6 18 -4 3 -16 -4 -27 -15z"/>
<path d="M2281 1381 c-41 -41 -23 -70 45 -68 27 0 55 -2 61 -6 16 -10 40 1 48
21 5 14 4 15 -6 5 -7 -7 -19 -13 -26 -13 -20 0 -15 24 7 38 29 17 26 42 -5 42
-25 0 -30 -6 -50 -65 -7 -17 -9 -16 -17 13 -9 34 -28 35 -28 1 0 -10 -4 -19
-10 -19 -14 0 -13 33 2 48 6 6 9 14 6 18 -4 3 -16 -4 -27 -15z m129 -6 c-7 -9
-15 -13 -17 -11 -7 7 7 26 19 26 6 0 6 -6 -2 -15z"/>
<path d="M2450 1381 c5 -11 10 -31 10 -45 0 -14 5 -26 10 -26 6 0 10 9 10 20
0 11 10 30 21 41 l22 22 -26 -7 c-14 -3 -29 -2 -32 4 -12 19 -26 11 -15 -9z"/>
<path d="M2173 1263 c-18 -6 -16 -48 2 -63 20 -17 19 -47 -2 -54 -11 -3 -8 -4
7 -3 32 3 37 30 11 63 -26 33 -26 42 -3 46 9 2 13 6 7 9 -5 4 -16 4 -22 2z"/>
<path d="M2242 1250 c-15 -40 -26 -117 -14 -105 6 6 12 19 14 30 3 18 6 17 21
-10 l17 -30 -6 50 c-4 28 -10 59 -14 70 -8 19 -8 19 -18 -5z"/>
<path d="M2298 1264 c-5 -4 -8 -34 -8 -68 0 -42 3 -57 11 -49 5 5 9 36 7 67
-2 32 -6 54 -10 50z"/>
<path d="M1931 1260 c-1 -3 -4 -31 -7 -62 -4 -39 -2 -58 5 -58 6 0 11 15 12
33 l0 32 16 -32 c9 -18 20 -33 25 -33 4 0 0 16 -9 36 -14 28 -15 39 -5 54 18
29 15 35 -7 16 -18 -17 -19 -17 -24 1 -3 10 -5 16 -6 13z"/>
<path d="M2002 1203 c3 -55 5 -58 30 -61 22 -3 29 2 34 22 3 15 3 43 -2 64
l-8 37 -6 -54 c-7 -76 -30 -81 -30 -7 0 32 -4 56 -10 56 -7 0 -10 -22 -8 -57z"/>
<path d="M2091 1204 c-14 -61 -8 -83 10 -38 l11 29 15 -30 c13 -29 14 -29 8
19 -12 94 -26 100 -44 20z"/>
<path d="M1815 1128 c-2 -7 -6 -37 -7 -67 -2 -33 -8 -56 -15 -59 -8 -2 -13 6
-13 22 0 14 -4 26 -10 26 -5 0 -10 -6 -10 -14 0 -7 -7 -19 -15 -26 -13 -11
-15 -8 -15 13 0 14 8 31 18 36 15 9 15 10 -5 11 -30 0 -49 -35 -34 -66 11 -26
26 -31 36 -14 5 8 11 8 19 1 6 -6 25 -9 41 -7 24 2 31 8 33 30 4 35 25 28 32
-10 3 -19 12 -30 25 -32 16 -3 18 -1 8 9 -7 7 -13 23 -13 35 0 34 -10 54 -27
54 -11 0 -14 7 -10 22 9 34 -27 67 -38 36z m22 -40 c-3 -7 -5 -2 -5 12 0 14 2
19 5 13 2 -7 2 -19 0 -25z"/>
<path d="M1615 1099 c-23 -43 -17 -111 10 -116 42 -7 65 6 65 37 0 17 -7 33
-17 39 -14 8 -15 12 -4 25 11 13 11 19 1 31 -19 23 -38 18 -55 -16z m42 -14
c-4 -8 -11 -15 -17 -15 -7 0 -7 6 0 21 13 23 26 19 17 -6z m16 -47 c7 -21 -4
-38 -23 -38 -12 0 -17 8 -17 25 0 17 5 25 17 25 10 0 20 -6 23 -12z"/>
<path d="M2280 1105 c-6 -15 -10 -35 -10 -46 0 -10 -5 -19 -11 -19 -8 0 -8 -4
-1 -12 5 -7 12 -22 14 -33 4 -18 6 -17 16 8 20 47 62 31 62 -24 0 -10 3 -19 8
-19 4 0 7 20 7 45 0 25 -3 45 -6 45 -4 0 -12 13 -17 29 -6 16 -20 34 -31 41
-18 9 -22 7 -31 -15z m48 -44 c-4 -20 -24 -25 -31 -7 -3 8 -3 24 0 37 6 21 7
21 20 3 7 -10 12 -25 11 -33z"/>
<path d="M2466 1111 c-4 -5 -2 -12 3 -15 5 -4 12 -2 15 3 4 5 2 12 -3 15 -5 4
-12 2 -15 -3z"/>
<path d="M2027 1083 c-13 -12 -7 -40 13 -58 11 -10 20 -22 20 -27 0 -14 -30
-9 -36 7 -5 11 -10 13 -19 5 -14 -12 -25 -3 -25 22 0 27 -17 22 -24 -7 -4 -14
-11 -25 -16 -25 -16 0 -12 37 6 54 12 13 12 16 2 16 -8 0 -19 -5 -26 -12 -13
-13 -17 -67 -4 -69 4 0 26 -2 49 -3 23 -1 46 -5 49 -9 13 -13 55 -7 60 8 3 8
-3 26 -15 41 -16 20 -18 31 -10 45 7 14 6 19 -4 19 -8 0 -17 -3 -20 -7z"/>
<path d="M2403 1083 c-19 -7 -15 -38 7 -58 25 -22 26 -38 3 -33 -10 2 -17 10
-15 16 1 7 -3 12 -9 12 -6 0 -9 -10 -7 -22 3 -25 40 -37 61 -20 7 5 29 8 49 6
33 -3 37 0 48 29 8 26 13 29 20 17 5 -8 10 -23 10 -33 0 -22 27 -34 43 -18 8
8 7 11 -6 11 -12 0 -17 8 -17 30 0 34 -22 49 -45 30 -10 -9 -15 -9 -15 -1 0 6
-4 11 -10 11 -5 0 -10 -14 -10 -31 0 -42 -23 -33 -31 12 -6 34 -6 34 -16 9 -6
-14 -9 -28 -6 -32 8 -14 -14 -8 -27 7 -7 8 -10 25 -6 40 6 25 3 28 -21 18z"/>
<path d="M2097 1049 c-14 -19 -13 -58 2 -60 3 0 23 -2 43 -4 24 -3 41 1 49 11
11 13 10 15 -7 12 -13 -2 -20 3 -22 20 -4 29 -18 28 -26 -3 -4 -14 -11 -25
-16 -25 -16 0 -12 37 6 54 14 14 14 16 0 16 -8 0 -21 -9 -29 -21z"/>
<path d="M2606 1054 c-8 -22 11 -54 29 -48 22 9 30 -23 10 -42 -22 -22 -16
-59 10 -59 15 0 22 10 30 40 5 22 14 43 20 47 6 5 3 8 -6 8 -9 0 -22 7 -29 15
-7 9 -19 14 -27 11 -7 -3 -13 1 -13 9 0 8 7 15 16 15 8 0 12 5 9 10 -10 16
-42 12 -49 -6z m54 -120 c0 -8 -5 -12 -10 -9 -6 4 -8 11 -5 16 9 14 15 11 15
-7z"/>
</g>
</svg>
