<?xml version="1.0" encoding="iso-8859-1"?>
<!-- Uploaded to: SVG Repo, www.svgrepo.com, Generator: SVG Repo Mixer Tools -->
<svg height="800px" width="800px" version="1.1" id="Layer_1" xmlns="http://www.w3.org/2000/svg" xmlns:xlink="http://www.w3.org/1999/xlink" 
	 viewBox="0 0 512.154 512.154" xml:space="preserve">
<g transform="translate(1 1)">
	<g>
		<polygon style="fill:#FCC309;" points="383.077,195.344 383.077,118.544 348.944,118.544 348.944,84.41 161.21,84.41 
			161.21,118.544 127.077,118.544 127.077,195.344 		"/>
		<polygon style="fill:#FCC309;" points="127.077,280.677 127.077,340.41 255.077,425.744 383.077,340.41 383.077,280.677 		"/>
	</g>
	<g>
		<polygon style="fill:#FFDD09;" points="161.21,195.344 161.21,152.677 195.344,152.677 195.344,118.544 314.81,118.544 
			314.81,152.677 348.944,152.677 348.944,195.344 		"/>
		<polygon style="fill:#FFDD09;" points="161.21,322.49 161.21,280.677 348.944,280.677 348.944,322.49 255.077,384.784 		"/>
	</g>
	<g>
		<polygon style="fill:#1CD759;" points="127.077,280.677 101.477,229.477 33.21,229.477 67.344,272.144 33.21,314.81 
			127.077,314.81 		"/>
		<polygon style="fill:#1CD759;" points="101.477,280.677 408.677,280.677 408.677,195.344 101.477,195.344 		"/>
	</g>
	<polygon style="fill:#FFFFFF;" points="33.21,229.477 7.61,229.477 41.744,272.144 7.61,314.81 33.21,314.81 67.344,272.144 	"/>
	<polygon style="fill:#1CD759;" points="383.077,280.677 408.677,229.477 476.944,229.477 442.81,272.144 476.944,314.81 
		383.077,314.81 	"/>
	<polygon style="fill:#15A143;" points="476.944,229.477 502.544,229.477 468.41,272.144 502.544,314.81 476.944,314.81 
		442.81,272.144 	"/>
	<path d="M408.677,289.21h-307.2c-5.12,0-8.533-3.413-8.533-8.533v-85.333c0-5.12,3.413-8.533,8.533-8.533h307.2
		c5.12,0,8.533,3.413,8.533,8.533v85.333C417.21,285.797,413.797,289.21,408.677,289.21z M110.01,272.144h290.133v-68.267H110.01
		V272.144z"/>
	<path d="M127.077,323.344H7.61c-3.413,0-5.973-1.707-7.68-5.12c-1.707-2.56-0.853-6.827,0.853-9.387l29.867-36.693L0.784,234.597
		c-1.707-2.56-2.56-5.973-0.853-9.387c1.707-1.707,4.267-4.267,7.68-4.267h93.867c5.12,0,8.533,3.413,8.533,8.533v42.667h17.067
		c5.12,0,8.533,3.413,8.533,8.533v34.133C135.61,319.93,132.197,323.344,127.077,323.344z M25.53,306.277h93.013V289.21h-17.067
		c-5.12,0-8.533-3.413-8.533-8.533V238.01H25.53l23.04,29.013c2.56,3.413,2.56,7.68,0,10.24L25.53,306.277z"/>
	<path d="M502.544,323.344H383.077c-5.12,0-8.533-3.413-8.533-8.533v-34.133c0-5.12,3.413-8.533,8.533-8.533h17.067v-42.667
		c0-5.12,3.413-8.533,8.533-8.533h93.867c3.413,0,5.973,1.707,7.68,5.12c1.707,2.56,0.853,6.827-0.853,9.387l-29.867,36.693
		l29.867,37.547c1.707,2.56,2.56,5.973,0.853,9.387C508.517,321.637,505.957,323.344,502.544,323.344z M391.61,306.277h93.013
		l-23.04-29.013c-2.56-3.413-2.56-7.68,0-10.24l23.04-29.013H417.21v42.667c0,5.12-3.413,8.533-8.533,8.533H391.61V306.277z"/>
	<path d="M383.077,203.877h-256c-5.12,0-8.533-3.413-8.533-8.533v-76.8c0-5.12,3.413-8.533,8.533-8.533h25.6v-25.6
		c0-5.12,3.413-8.533,8.533-8.533h187.733c5.12,0,8.533,3.413,8.533,8.533v25.6h25.6c5.12,0,8.533,3.413,8.533,8.533v76.8
		C391.61,200.464,388.197,203.877,383.077,203.877z M135.61,186.81h238.933v-59.733h-25.6c-5.12,0-8.533-3.413-8.533-8.533v-25.6
		H169.744v25.6c0,5.12-3.413,8.533-8.533,8.533h-25.6V186.81z"/>
	<path d="M348.944,203.877H161.21c-5.12,0-8.533-3.413-8.533-8.533v-42.667c0-5.12,3.413-8.533,8.533-8.533h25.6v-25.6
		c0-5.12,3.413-8.533,8.533-8.533H314.81c5.12,0,8.533,3.413,8.533,8.533v25.6h25.6c5.12,0,8.533,3.413,8.533,8.533v42.667
		C357.477,200.464,354.064,203.877,348.944,203.877z M169.744,186.81H340.41v-25.6h-25.6c-5.12,0-8.533-3.413-8.533-8.533v-25.6
		h-102.4v25.6c0,5.12-3.413,8.533-8.533,8.533h-25.6V186.81z"/>
	<path d="M255.077,434.277c-1.707,0-3.413-0.853-5.12-1.707l-51.2-34.133c-4.267-2.56-5.12-7.68-2.56-11.947
		c2.56-4.267,7.68-5.12,11.947-2.56l46.08,30.72l119.467-79.36v-46.08H135.61v46.933l22.187,14.507
		c4.267,2.56,5.12,7.68,2.56,11.947c-2.56,4.267-7.68,5.12-11.947,2.56l-25.6-17.067c-2.56-1.707-4.267-4.267-4.267-7.68v-59.733
		c0-5.12,3.413-8.533,8.533-8.533h256c5.12,0,8.533,3.413,8.533,8.533v59.733c0,2.56-1.707,5.12-3.413,6.827l-128,85.333
		C258.49,434.277,256.784,434.277,255.077,434.277z"/>
	<path d="M255.077,393.317c-1.707,0-3.413-0.853-5.12-1.707l-93.867-62.293c-2.56-1.707-3.413-4.267-3.413-6.827v-41.813
		c0-5.12,3.413-8.533,8.533-8.533h187.733c5.12,0,8.533,3.413,8.533,8.533v41.813c0,2.56-1.707,5.12-3.413,6.827l-93.867,62.293
		C258.49,393.317,256.784,393.317,255.077,393.317z M169.744,318.224l85.333,56.32l85.333-57.173v-28.16H169.744V318.224z"/>
	<path d="M186.81,374.544c0-5.12-3.413-8.533-8.533-8.533c-5.12,0-8.533,3.413-8.533,8.533s3.413,8.533,8.533,8.533
		C183.397,383.077,186.81,379.664,186.81,374.544"/>
</g>
</svg>