<?xml version="1.0" encoding="iso-8859-1"?>
<!-- Uploaded to: SVG Repo, www.svgrepo.com, Generator: SVG Repo Mixer Tools -->
<svg height="800px" width="800px" version="1.1" id="Layer_1" xmlns="http://www.w3.org/2000/svg" xmlns:xlink="http://www.w3.org/1999/xlink" 
	 viewBox="0 0 512.154 512.154" xml:space="preserve">
<g transform="translate(1 1)">
	<g>
		<path style="fill:#FCC309;" d="M383.077,212.197c4.267-22.187,7.68-45.227,8.533-68.267L255.077,58.597L118.544,143.93
			c0.853,23.04,4.267,46.08,8.533,68.267H383.077z"/>
		<path style="fill:#FCC309;" d="M153.53,297.53c19.627,46.933,46.933,91.307,81.067,130.56l20.48,23.04l20.48-23.04
			c34.133-39.253,61.44-82.773,81.067-130.56H153.53z"/>
	</g>
	<g>
		<path style="fill:#FFDD09;" d="M348.09,212.197c3.413-16.213,5.973-33.28,7.68-50.347L255.077,99.557l-100.693,63.147
			c1.707,17.067,4.267,34.133,7.68,50.347H348.09V212.197z"/>
		<path style="fill:#FFDD09;" d="M190.224,297.53c16.213,36.693,38.4,70.827,64.853,101.547
			c26.453-30.72,47.787-64.853,64.853-101.547C319.93,297.53,190.224,297.53,190.224,297.53z"/>
	</g>
	<g>
		<polygon style="fill:#1CD759;" points="127.077,297.53 101.477,246.33 33.21,246.33 67.344,288.997 33.21,331.664 
			127.077,331.664 		"/>
		<polygon style="fill:#1CD759;" points="101.477,297.53 408.677,297.53 408.677,212.197 101.477,212.197 		"/>
	</g>
	<polygon style="fill:#FFFFFF;" points="33.21,246.33 7.61,246.33 41.744,288.997 7.61,331.664 33.21,331.664 67.344,288.997 	"/>
	<polygon style="fill:#1CD759;" points="383.077,297.53 408.677,246.33 476.944,246.33 442.81,288.997 476.944,331.664 
		383.077,331.664 	"/>
	<polygon style="fill:#15A143;" points="476.944,246.33 502.544,246.33 468.41,288.997 502.544,331.664 476.944,331.664 
		442.81,288.997 	"/>
	<path d="M408.677,306.064h-307.2c-5.12,0-8.533-3.413-8.533-8.533v-85.333c0-5.12,3.413-8.533,8.533-8.533h307.2
		c5.12,0,8.533,3.413,8.533,8.533v85.333C417.21,302.65,413.797,306.064,408.677,306.064z M110.01,288.997h290.133V220.73H110.01
		V288.997z"/>
	<path d="M127.077,340.197H7.61c-3.413,0-5.973-1.707-7.68-5.12c-1.707-2.56-0.853-6.827,0.853-9.387l29.867-36.693L0.784,251.45
		c-1.707-2.56-2.56-5.973-0.853-9.387c1.707-1.707,4.267-4.267,7.68-4.267h93.867c5.12,0,8.533,3.413,8.533,8.533v42.667h17.067
		c5.12,0,8.533,3.413,8.533,8.533v34.133C135.61,336.784,132.197,340.197,127.077,340.197z M25.53,323.13h93.013v-17.067h-17.067
		c-5.12,0-8.533-3.413-8.533-8.533v-42.667H25.53l23.04,29.013c2.56,3.413,2.56,7.68,0,10.24L25.53,323.13z"/>
	<path d="M502.544,340.197H383.077c-5.12,0-8.533-3.413-8.533-8.533V297.53c0-5.12,3.413-8.533,8.533-8.533h17.067V246.33
		c0-5.12,3.413-8.533,8.533-8.533h93.867c3.413,0,5.973,1.707,7.68,5.12c1.707,2.56,0.853,6.827-0.853,9.387l-29.867,36.693
		l29.867,37.547c1.707,2.56,2.56,5.973,0.853,9.387C508.517,338.49,505.957,340.197,502.544,340.197z M391.61,323.13h93.013
		l-23.04-29.013c-2.56-3.413-2.56-7.68,0-10.24l23.04-29.013H417.21v42.667c0,5.12-3.413,8.533-8.533,8.533H391.61V323.13z"/>
	<path d="M383.077,220.73h-256c-4.267,0-7.68-2.56-8.533-6.827c-5.12-23.04-7.68-46.933-8.533-69.12c0-3.413,1.707-5.973,4.267-7.68
		L250.81,51.77c2.56-1.707,5.973-1.707,9.387,0l136.533,85.333c2.56,1.707,4.267,4.267,4.267,7.68
		c-0.853,23.04-4.267,46.08-8.533,69.12C390.757,218.17,386.49,220.73,383.077,220.73z M134.757,203.664H376.25
		c3.413-18.773,5.973-36.693,6.827-55.467l-128-79.36l-128,80.213C128.784,166.97,130.49,185.744,134.757,203.664z"/>
	<path d="M255.077,459.664L255.077,459.664c-2.56,0-5.12-0.853-6.827-2.56l-20.48-23.04c-8.533-9.387-16.213-18.773-23.04-28.16
		c-2.56-3.413-1.707-9.387,1.707-11.947c3.413-2.56,9.387-1.707,11.947,1.707c6.827,9.387,14.507,18.773,22.187,27.307
		l14.507,16.213l14.507-16.213c30.72-34.987,55.467-74.24,74.24-116.907H166.33c5.973,12.8,12.8,27.307,19.627,39.253
		c2.56,4.267,0.853,9.387-3.413,11.947c-4.267,2.56-9.387,0.853-11.947-3.413c-9.387-17.067-17.92-34.133-25.6-52.053
		c-0.853-2.56-0.853-5.973,0.853-7.68c1.707-1.707,4.267-3.413,6.827-3.413h203.947c2.56,0,5.12,1.707,6.827,3.413
		c1.707,1.707,1.707,5.12,0.853,7.68c-20.48,48.64-47.787,93.013-82.773,132.267l-20.48,23.04
		C260.197,458.81,257.637,459.664,255.077,459.664z"/>
	<path d="M203.877,374.33c0-5.12-3.413-8.533-8.533-8.533c-5.12,0-8.533,3.413-8.533,8.533c0,5.12,3.413,8.533,8.533,8.533
		C200.464,382.864,203.877,379.45,203.877,374.33"/>
	<path d="M348.09,220.73H162.064c-4.267,0-7.68-2.56-8.533-6.827c-3.413-17.067-6.827-34.133-8.533-51.2
		c0-3.413,0.853-5.973,4.267-7.68l100.693-63.147c2.56-1.707,5.973-1.707,9.387,0l100.693,63.147c2.56,1.707,4.267,5.12,4.267,7.68
		c-1.707,17.067-4.267,34.133-8.533,51.2C355.77,218.17,352.357,220.73,348.09,220.73z M168.89,203.664h171.52
		c2.56-12.8,4.267-24.747,5.973-37.547l-91.307-57.173l-92.16,57.173C164.624,178.917,166.33,191.717,168.89,203.664z"/>
	<path d="M255.077,408.464c-2.56,0-5.12-0.853-6.827-3.413c-26.453-30.72-48.64-65.707-65.707-104.107
		c-0.853-2.56-0.853-5.973,0.853-8.533s4.267-3.413,6.827-3.413h128.853c2.56,0,5.973,0.853,6.827,3.413
		c1.707,2.56,1.707,5.12,0.853,8.533c-17.067,37.547-39.253,72.533-65.707,104.107C260.197,406.757,257.637,408.464,255.077,408.464
		z M203.877,306.064c13.653,29.013,31.573,55.467,51.2,80.213c19.627-24.747,36.693-51.2,51.2-80.213
		C306.277,306.064,203.877,306.064,203.877,306.064z"/>
</g>
</svg>